{"title":"Cyber City Odeo 808 File 1 Virtual Death","uid":5360977,"size":453050692,"categoryP":"video","categoryS":"movies","magnet":"?xt=urn:btih:126d5beac103a90027aa3b642eb0e4452153c17d&amp;dn=Cyber+City+Odeo+808+File+1+Virtual+Death&amp;tr=udp%3A%2F%2Ftracker.openbittorrent.com%3A80&amp;tr=udp%3A%2F%2Fopen.demonii.com%3A1337&amp;tr=udp%3A%2F%2Ftracker.coppersurfer.tk%3A6969&amp;tr=udp%3A%2F%2Fexodus.desync.com%3A6969","seeders":1,"leechers":0,"uploader":"Da5t3r","files":-1,"time":1266097079,"description":"&quot;Virtual Death&quot; (aka &quot;Time Bomb&quot; or &quot;Memories Of The Past&quot;): Sengoku is sent to save 50,000 people trapped in Oedo's largest skyscraper after its central computer is mysteriously taken over. Along the way, he finds that the only suspect is a dead man.\n\nVideo\nFormat                           : MPEG-4 Visual\nCodec                            : DivX\nDuration                         : 42mn 31s\nBit rate                         : 1 279 Kbps\nWidth                            : 720 pixels\nHeight                           : 528 pixels\nDisplay aspect ratio             : 4:3\nFrame rate                       : 25.000 fps\nResolution                       : 8 bits\nBits/(Pixel*Frame)               : 0.135\nStream size                      : 389 MiB (90%)\n\nAudio\nFormat                           : MPEG Audio\nFormat version                   : Version 1\nFormat profile                   : Layer 3\nFormat_Settings_Mode             : Joint stereo\nFormat_Settings_ModeExtension    : MS Stereo\nCodec ID                         : MP3\nDuration                         : 42mn 30s\nBit rate mode                    : Constant\nBit rate                         : 128 Kbps\nChannel(s)                       : 2 channels\nSampling rate                    : 48.0 KHz\nStream size                      : 38.9 MiB (9%)\nAlignment                        : Split accross interleaves\nInterleave, duration             : 24 ms (0.60 video frame)","torrent":{"xt":"urn:btih:126d5beac103a90027aa3b642eb0e4452153c17d","amp;dn":"Cyber+City+Odeo+808+File+1+Virtual+Death","amp;tr":["udp%3A%2F%2Ftracker.openbittorrent.com%3A80","udp%3A%2F%2Fopen.demonii.com%3A1337","udp%3A%2F%2Ftracker.coppersurfer.tk%3A6969","udp%3A%2F%2Fexodus.desync.com%3A6969"],"infoHash":"126d5beac103a90027aa3b642eb0e4452153c17d","infoHashBuffer":{"type":"Buffer","data":[18,109,91,234,193,3,169,0,39,170,59,100,46,176,228,69,33,83,193,125]},"announce":[],"urlList":[]}}